<svg xmlns="http://www.w3.org/2000/svg" xmlns:xlink="http://www.w3.org/1999/xlink" width="288" height="98" viewBox="0 0 288 98">
  <defs>
    <filter id="Rectangle_1021" x="0" y="0" width="288" height="98" filterUnits="userSpaceOnUse">
      <feOffset dy="3" input="SourceAlpha"/>
      <feGaussianBlur stdDeviation="3" result="blur"/>
      <feFlood flood-opacity="0.059"/>
      <feComposite operator="in" in2="blur"/>
      <feComposite in="SourceGraphic"/>
    </filter>
  </defs>
  <g id="Group_9545" data-name="Group 9545" transform="translate(-431 -3457)">
    <g transform="matrix(1, 0, 0, 1, 431, 3457)" filter="url(#Rectangle_1021)">
      <rect id="Rectangle_1021-2" data-name="Rectangle 1021" width="270" height="80" rx="10" transform="translate(9 6)"/>
    </g>
    <g id="Group_9544" data-name="Group 9544" transform="translate(-160.811 368)">
      <path id="Path_3" data-name="Path 3" d="M38.37,26.293a9.67,9.67,0,0,1,4.523-8.084,9.687,9.687,0,0,0-7.659-4.2c-3.222-.343-6.347,1.957-7.989,1.957-1.673,0-4.2-1.922-6.926-1.865a10.184,10.184,0,0,0-8.584,5.311c-3.712,6.518-.942,16.1,2.612,21.37,1.779,2.58,3.859,5.463,6.579,5.36,2.662-.111,3.656-1.721,6.869-1.721,3.184,0,4.117,1.721,6.894,1.657,2.856-.047,4.656-2.591,6.372-5.2a21.423,21.423,0,0,0,2.913-6.022,9.316,9.316,0,0,1-5.6-8.565" transform="translate(615.839 3111.857)" fill="#fff"/>
      <path id="Path_4" data-name="Path 4" d="M24.964,15.358A9.258,9.258,0,0,0,27.082,8.72a9.432,9.432,0,0,0-6.1,3.156,8.817,8.817,0,0,0-2.175,6.391,7.793,7.793,0,0,0,6.155-2.909" transform="translate(623.994 3103.28)" fill="#fff"/>
    </g>
    <text id="Download_on_the" data-name="Download on the" transform="translate(524 3492)" fill="#fff" font-size="16" font-family="NexaLight, Nexa"><tspan x="0" y="0">Download on the</tspan></text>
    <text id="App_Store" data-name="App Store" transform="translate(525 3521)" fill="#fff" font-size="26" font-family="NexaBold, Nexa"><tspan x="0" y="0">App Store</tspan></text>
  </g>
</svg>
