<svg xmlns="http://www.w3.org/2000/svg" width="400" height="215" viewBox="0 0 400 215">
  <g id="Group_10905" data-name="Group 10905" transform="translate(-190 -587)">
    <g id="Group_10883" data-name="Group 10883" transform="translate(190 587)">
      <rect id="Rectangle_16" data-name="Rectangle 16" width="399.999" height="214.999" transform="translate(0.001 0)" fill="#2fce2f"/>
      <path id="Path_13" data-name="Path 13" d="M293.406,230.987c-36.112,56.1-95.747,85.553-150.095,55.68S68.277,274.6,68.277,274.6v31.178a29.659,29.659,0,0,0,29.7,29.606H438.572a29.657,29.657,0,0,0,29.7-29.606V152.64C440.363,231.508,350.144,142.849,293.406,230.987Z" transform="translate(-68.277 -120.382)" fill="rgba(0,0,0,0.05)"/>
      <g id="Group_44" data-name="Group 44" transform="translate(27.892 26.397)" opacity="0.2" style="mix-blend-mode: overlay;isolation: isolate">
        <g id="Group_40" data-name="Group 40" transform="translate(0 0)">
          <circle id="Ellipse_8" data-name="Ellipse 8" cx="2.228" cy="2.228" r="2.228" fill="#fff"/>
          <circle id="Ellipse_9" data-name="Ellipse 9" cx="2.228" cy="2.228" r="2.228" transform="translate(21.041)" fill="#fff"/>
          <circle id="Ellipse_10" data-name="Ellipse 10" cx="2.228" cy="2.228" r="2.228" transform="translate(42.081)" fill="#fff"/>
          <circle id="Ellipse_11" data-name="Ellipse 11" cx="2.228" cy="2.228" r="2.228" transform="translate(63.122)" fill="#fff"/>
          <circle id="Ellipse_12" data-name="Ellipse 12" cx="2.228" cy="2.228" r="2.228" transform="translate(84.163)" fill="#fff"/>
        </g>
        <g id="Group_41" data-name="Group 41" transform="translate(0 21.041)">
          <circle id="Ellipse_13" data-name="Ellipse 13" cx="2.228" cy="2.228" r="2.228" fill="#fff"/>
          <circle id="Ellipse_14" data-name="Ellipse 14" cx="2.228" cy="2.228" r="2.228" transform="translate(21.041)" fill="#fff"/>
          <circle id="Ellipse_15" data-name="Ellipse 15" cx="2.228" cy="2.228" r="2.228" transform="translate(42.081)" fill="#fff"/>
          <circle id="Ellipse_16" data-name="Ellipse 16" cx="2.228" cy="2.228" r="2.228" transform="translate(63.122)" fill="#fff"/>
          <circle id="Ellipse_17" data-name="Ellipse 17" cx="2.228" cy="2.228" r="2.228" transform="translate(84.163)" fill="#fff"/>
        </g>
        <g id="Group_42" data-name="Group 42" transform="translate(0 42.081)">
          <circle id="Ellipse_18" data-name="Ellipse 18" cx="2.228" cy="2.228" r="2.228" fill="#fff"/>
          <circle id="Ellipse_19" data-name="Ellipse 19" cx="2.228" cy="2.228" r="2.228" transform="translate(21.041)" fill="#fff"/>
          <circle id="Ellipse_20" data-name="Ellipse 20" cx="2.228" cy="2.228" r="2.228" transform="translate(42.081)" fill="#fff"/>
          <circle id="Ellipse_21" data-name="Ellipse 21" cx="2.228" cy="2.228" r="2.228" transform="translate(63.122)" fill="#fff"/>
          <circle id="Ellipse_22" data-name="Ellipse 22" cx="2.228" cy="2.228" r="2.228" transform="translate(84.163)" fill="#fff"/>
        </g>
        <g id="Group_43" data-name="Group 43" transform="translate(0 63.122)">
          <circle id="Ellipse_23" data-name="Ellipse 23" cx="2.228" cy="2.228" r="2.228" fill="#fff"/>
          <circle id="Ellipse_24" data-name="Ellipse 24" cx="2.228" cy="2.228" r="2.228" transform="translate(21.041)" fill="#fff"/>
          <circle id="Ellipse_25" data-name="Ellipse 25" cx="2.228" cy="2.228" r="2.228" transform="translate(42.081)" fill="#fff"/>
          <circle id="Ellipse_26" data-name="Ellipse 26" cx="2.228" cy="2.228" r="2.228" transform="translate(63.122)" fill="#fff"/>
          <circle id="Ellipse_27" data-name="Ellipse 27" cx="2.228" cy="2.228" r="2.228" transform="translate(84.163)" fill="#fff"/>
        </g>
      </g>
    </g>
    <g id="Group_10884" data-name="Group 10884" transform="translate(476.941 712.068)" opacity="0.2" style="mix-blend-mode: overlay;isolation: isolate">
      <g id="Group_45" data-name="Group 45" transform="translate(0 0)">
        <circle id="Ellipse_28" data-name="Ellipse 28" cx="2.228" cy="2.228" r="2.228" fill="#fff"/>
        <circle id="Ellipse_29" data-name="Ellipse 29" cx="2.228" cy="2.228" r="2.228" transform="translate(21.041)" fill="#fff"/>
        <circle id="Ellipse_30" data-name="Ellipse 30" cx="2.228" cy="2.228" r="2.228" transform="translate(42.082)" fill="#fff"/>
        <circle id="Ellipse_31" data-name="Ellipse 31" cx="2.228" cy="2.228" r="2.228" transform="translate(63.122)" fill="#fff"/>
        <circle id="Ellipse_32" data-name="Ellipse 32" cx="2.228" cy="2.228" r="2.228" transform="translate(84.163)" fill="#fff"/>
      </g>
      <g id="Group_46" data-name="Group 46" transform="translate(0 21.041)">
        <circle id="Ellipse_33" data-name="Ellipse 33" cx="2.228" cy="2.228" r="2.228" fill="#fff"/>
        <circle id="Ellipse_34" data-name="Ellipse 34" cx="2.228" cy="2.228" r="2.228" transform="translate(21.041)" fill="#fff"/>
        <circle id="Ellipse_35" data-name="Ellipse 35" cx="2.228" cy="2.228" r="2.228" transform="translate(42.082)" fill="#fff"/>
        <circle id="Ellipse_36" data-name="Ellipse 36" cx="2.228" cy="2.228" r="2.228" transform="translate(63.122)" fill="#fff"/>
        <circle id="Ellipse_37" data-name="Ellipse 37" cx="2.228" cy="2.228" r="2.228" transform="translate(84.163)" fill="#fff"/>
      </g>
      <g id="Group_47" data-name="Group 47" transform="translate(0 42.081)">
        <circle id="Ellipse_38" data-name="Ellipse 38" cx="2.228" cy="2.228" r="2.228" fill="#fff"/>
        <circle id="Ellipse_39" data-name="Ellipse 39" cx="2.228" cy="2.228" r="2.228" transform="translate(21.041)" fill="#fff"/>
        <circle id="Ellipse_40" data-name="Ellipse 40" cx="2.228" cy="2.228" r="2.228" transform="translate(42.082)" fill="#fff"/>
        <circle id="Ellipse_41" data-name="Ellipse 41" cx="2.228" cy="2.228" r="2.228" transform="translate(63.122)" fill="#fff"/>
        <circle id="Ellipse_42" data-name="Ellipse 42" cx="2.228" cy="2.228" r="2.228" transform="translate(84.163)" fill="#fff"/>
      </g>
      <g id="Group_48" data-name="Group 48" transform="translate(0 63.122)">
        <circle id="Ellipse_43" data-name="Ellipse 43" cx="2.228" cy="2.228" r="2.228" fill="#fff"/>
        <circle id="Ellipse_44" data-name="Ellipse 44" cx="2.228" cy="2.228" r="2.228" transform="translate(21.041)" fill="#fff"/>
        <circle id="Ellipse_45" data-name="Ellipse 45" cx="2.228" cy="2.228" r="2.228" transform="translate(42.082)" fill="#fff"/>
        <circle id="Ellipse_46" data-name="Ellipse 46" cx="2.228" cy="2.228" r="2.228" transform="translate(63.122)" fill="#fff"/>
        <circle id="Ellipse_47" data-name="Ellipse 47" cx="2.228" cy="2.228" r="2.228" transform="translate(84.163)" fill="#fff"/>
      </g>
    </g>
  </g>
</svg>
