<svg xmlns="http://www.w3.org/2000/svg" width="96" height="96" viewBox="0 0 96 96">
  <g id="date-icon" transform="translate(-140 -474)">
    <circle id="Ellipse_801" data-name="Ellipse 801" cx="48" cy="48" r="48" transform="translate(140 474)" fill="#fff"/>
    <circle id="Ellipse_803" data-name="Ellipse 803" cx="39" cy="39" r="39" transform="translate(149 483)" fill="#d0f0d0"/>
    <g id="calendar-birthady-event-schedule-cake" transform="translate(159 493.005)">
      <path id="Path_16921" data-name="Path 16921" d="M51.677,50.741V15H48.1V48.954a3.574,3.574,0,0,1-3.574,3.574H7A3.574,3.574,0,0,0,10.574,56.1H46.315A5.361,5.361,0,0,0,51.677,50.741Z" transform="translate(-0.532 -1.385)" fill="#9bc9ff"/>
      <path id="Path_16922" data-name="Path 16922" d="M56.361,50.741A5.361,5.361,0,0,1,51,56.1h5.361a3.574,3.574,0,0,0,3.574-3.574V15H56.361Z" transform="translate(-5.217 -1.385)" fill="#9bc9ff"/>
      <path id="Path_16923" data-name="Path 16923" d="M6.574,56.361H44.1a3.57,3.57,0,0,1-3.574-3.574V51H3v1.787A3.574,3.574,0,0,0,6.574,56.361Z" transform="translate(-0.106 -5.218)" fill="#9bc9ff"/>
      <path id="Path_16924" data-name="Path 16924" d="M55.251,10.574v3.574H7V10.574A3.574,3.574,0,0,1,10.574,7h41.1A3.574,3.574,0,0,1,55.251,10.574Z" transform="translate(-0.532 -0.533)" fill="#9bc9ff"/>
      <path id="Path_16925" data-name="Path 16925" d="M36.764,41.681A2.681,2.681,0,0,1,34.084,39a2.681,2.681,0,0,1-5.361,0,2.681,2.681,0,0,1-5.361,0A2.681,2.681,0,0,1,18,39v7.148H39.445V39A2.681,2.681,0,0,1,36.764,41.681Z" transform="translate(-1.704 -3.94)" fill="#9bc9ff"/>
      <path id="Path_16926" data-name="Path 16926" d="M29.042,38.148h8.042V31a2.681,2.681,0,1,1-5.361,0,2.681,2.681,0,0,1-5.361,0A2.681,2.681,0,0,1,21,31v7.148Z" transform="translate(-2.023 -3.088)" fill="#9bc9ff"/>
      <path id="Path_16927" data-name="Path 16927" d="M28,26h3.574v4.468H28Z" transform="translate(-2.768 -2.556)" fill="#9bc9ff"/>
      <g id="Group_4599" data-name="Group 4599" transform="translate(2 1.995)">
        <path id="Path_16928" data-name="Path 16928" d="M51.144,5.574h-.983a4.468,4.468,0,0,0-8.757,0H40.332a4.468,4.468,0,0,0-8.757,0H30.5a4.468,4.468,0,0,0-8.757,0H20.675a4.468,4.468,0,0,0-8.757,0H10.042a4.468,4.468,0,0,0-4.468,4.468V44.889H2.894A.894.894,0,0,0,2,45.782V47.57a4.468,4.468,0,0,0,3.655,4.387,4.468,4.468,0,0,0,4.387,3.655h41.1a4.468,4.468,0,0,0,4.468-4.468v-41.1a4.468,4.468,0,0,0-4.468-4.468ZM45.783,3.787A2.69,2.69,0,0,1,48.3,5.574h-5.04a2.69,2.69,0,0,1,2.52-1.787Zm-9.829,0a2.69,2.69,0,0,1,2.52,1.787h-5.04a2.69,2.69,0,0,1,2.52-1.787Zm-9.829,0a2.69,2.69,0,0,1,2.52,1.787h-5.04a2.69,2.69,0,0,1,2.52-1.787Zm-9.829,0a2.69,2.69,0,0,1,2.52,1.787h-5.04A2.69,2.69,0,0,1,16.3,3.787ZM7.361,14.509H46.677V47.57a2.681,2.681,0,1,1-5.361,0V45.782a.894.894,0,0,0-.894-.894H7.361ZM6.468,50.25A2.689,2.689,0,0,1,3.787,47.57v-.894H39.528v.894a4.455,4.455,0,0,0,.894,2.681Zm39.315,3.574H10.042a2.693,2.693,0,0,1-2.529-1.787H44a4.468,4.468,0,0,0,4.468-4.468V14.509h1.787V49.357A4.468,4.468,0,0,1,45.783,53.824Zm8.042-2.681a2.689,2.689,0,0,1-2.681,2.681h-.992a6.228,6.228,0,0,0,1.885-4.468V14.509h1.787Zm0-38.422H7.361V10.041a2.689,2.689,0,0,1,2.681-2.681h1.876A4.483,4.483,0,0,0,16.3,10.935a.894.894,0,0,0,0-1.787,2.69,2.69,0,0,1-2.52-1.787h7.97a4.483,4.483,0,0,0,4.378,3.574.894.894,0,1,0,0-1.787,2.69,2.69,0,0,1-2.52-1.787h7.97a4.483,4.483,0,0,0,4.378,3.574.894.894,0,0,0,0-1.787,2.69,2.69,0,0,1-2.52-1.787H41.4a4.483,4.483,0,0,0,4.378,3.574.894.894,0,1,0,0-1.787,2.69,2.69,0,0,1-2.52-1.787h7.881a2.689,2.689,0,0,1,2.681,2.681Z" transform="translate(-2 -1.995)" fill="#1e81ce"/>
        <path id="Path_16929" data-name="Path 16929" d="M39.338,35.873H37.551V29.619a.894.894,0,0,0-.894-.894H31.3V25.151a.873.873,0,0,0-.724-.858A2.669,2.669,0,0,0,31.3,22.47c0-1.144-1.358-3.235-1.948-4.083a.923.923,0,0,0-1.465,0c-.59.849-1.948,2.94-1.948,4.083a2.669,2.669,0,0,0,.724,1.823.873.873,0,0,0-.724.858v3.574H20.574a.894.894,0,0,0-.894.894v6.255H17.894a.894.894,0,0,0-.894.894v7.148a.894.894,0,0,0,.894.894H39.338a.894.894,0,0,0,.894-.894V36.767A.894.894,0,0,0,39.338,35.873ZM38.2,37.66a1.787,1.787,0,0,1-3.092,0Zm-2.681-7.148a1.787,1.787,0,0,1-3.092,0Zm-6.907-9.963a6.574,6.574,0,0,1,.894,1.921.894.894,0,1,1-1.787,0,6.679,6.679,0,0,1,.894-1.921Zm-.894,5.5h1.787v2.681H27.722Zm2.439,4.468a1.787,1.787,0,0,1-3.092,0Zm-5.361,0a1.787,1.787,0,0,1-3.092,0Zm-3.333,2.18a3.49,3.49,0,0,0,1.787.5,3.545,3.545,0,0,0,2.681-1.233,3.53,3.53,0,0,0,5.361,0,3.545,3.545,0,0,0,2.681,1.233,3.49,3.49,0,0,0,1.787-.5v3.181h-14.3ZM32.842,37.66a1.787,1.787,0,0,1-3.092,0Zm-5.361,0a1.787,1.787,0,0,1-3.092,0Zm-5.361,0a1.787,1.787,0,0,1-3.092,0Zm16.325,5.361H18.787V39.841a3.49,3.49,0,0,0,1.787.5,3.545,3.545,0,0,0,2.681-1.233,3.53,3.53,0,0,0,5.361,0,3.53,3.53,0,0,0,5.361,0,3.545,3.545,0,0,0,2.681,1.233,3.49,3.49,0,0,0,1.787-.5Z" transform="translate(-3.597 -3.702)" fill="#1e81ce"/>
        <path id="Path_16930" data-name="Path 16930" d="M43,24h1.787v1.787H43Z" transform="translate(-6.365 -4.338)" fill="#1e81ce"/>
        <path id="Path_16931" data-name="Path 16931" d="M37,20h1.787v1.787H37Z" transform="translate(-5.726 -3.912)" fill="#1e81ce"/>
        <path id="Path_16932" data-name="Path 16932" d="M21,20h1.787v1.787H21Z" transform="translate(-4.023 -3.912)" fill="#1e81ce"/>
        <path id="Path_16933" data-name="Path 16933" d="M23,25h1.787v1.787H23Z" transform="translate(-4.236 -4.444)" fill="#1e81ce"/>
        <path id="Path_16934" data-name="Path 16934" d="M35,26h1.787v1.787H35Z" transform="translate(-5.513 -4.551)" fill="#1e81ce"/>
        <path id="Path_16935" data-name="Path 16935" d="M45,26h1.787v1.787H45Z" transform="translate(-6.578 -4.551)" fill="#1e81ce"/>
        <path id="Path_16936" data-name="Path 16936" d="M41,26h1.787v1.787H41Z" transform="translate(-6.152 -4.551)" fill="#1e81ce"/>
        <path id="Path_16937" data-name="Path 16937" d="M43,28h1.787v1.787H43Z" transform="translate(-6.365 -4.764)" fill="#1e81ce"/>
        <path id="Path_16938" data-name="Path 16938" d="M14,24h1.787v1.787H14Z" transform="translate(-3.278 -4.338)" fill="#1e81ce"/>
        <path id="Path_16939" data-name="Path 16939" d="M16,26h1.787v1.787H16Z" transform="translate(-3.491 -4.551)" fill="#1e81ce"/>
        <path id="Path_16940" data-name="Path 16940" d="M12,26h1.787v1.787H12Z" transform="translate(-3.065 -4.551)" fill="#1e81ce"/>
        <path id="Path_16941" data-name="Path 16941" d="M14,28h1.787v1.787H14Z" transform="translate(-3.278 -4.764)" fill="#1e81ce"/>
      </g>
    </g>
  </g>
</svg>
