<svg xmlns="http://www.w3.org/2000/svg" width="27.417" height="27.402" viewBox="0 0 27.417 27.402">
  <path id="Shape_1" data-name="Shape 1" d="M26.442,2.029a6.049,6.049,0,0,0-8.558,0L2.192,17.707a.784.784,0,0,0-.222.45L.808,26.764a.782.782,0,0,0,.222.66.8.8,0,0,0,.555.234.636.636,0,0,0,.105-.006l5.188-.7a.789.789,0,1,0-.21-1.565l-4.159.561.812-6,6.321,6.318a.8.8,0,0,0,.555.234.774.774,0,0,0,.555-.234L26.442,10.583a6.039,6.039,0,0,0,0-8.554ZM18.187,3.956l2.635,2.633L6.5,20.9,3.869,18.268ZM10.2,24.591,7.625,22.016,21.944,7.7l2.576,2.575ZM25.618,9.152l-6.3-6.3a4.477,4.477,0,0,1,6.3,6.3Z" transform="translate(-0.8 -0.255)" fill="#36393c"/>
</svg>
