<svg xmlns="http://www.w3.org/2000/svg" width="96" height="96" viewBox="0 0 96 96">
  <g id="email-icon" transform="translate(-51 -321)">
    <path id="Path_22947" data-name="Path 22947" d="M48,0A48,48,0,1,1,0,48,48,48,0,0,1,48,0Z" transform="translate(51 321)" fill="#fff"/>
    <circle id="Ellipse_809" data-name="Ellipse 809" cx="39" cy="39" r="39" transform="translate(60 330)" fill="#d0f0d0"/>
    <g id="open-email" transform="translate(72.361 338.358)">
      <path id="Path_22920" data-name="Path 22920" d="M53.28,185.266v28.888a5.116,5.116,0,0,1-5.116,5.115H5.118A5.114,5.114,0,0,1,0,214.154V185.266Zm0,0" transform="translate(-0.003 -165.986)" fill="#fec970"/>
      <path id="Path_22921" data-name="Path 22921" d="M53.277,19.28,32.8,2.228a9.627,9.627,0,0,0-12.32,0L0,19.28H0L6.036,24.3,20.478,36.33a9.624,9.624,0,0,0,12.32,0L47.242,24.3l6.036-5.025" fill="#fba028"/>
      <path id="Path_22922" data-name="Path 22922" d="M99.206,32.091V47.758L84.762,59.783a9.624,9.624,0,0,1-12.32,0L58,47.758V32.091a5.915,5.915,0,0,1,5.916-5.915H93.291a5.915,5.915,0,0,1,5.915,5.915Zm0,0" transform="translate(-51.964 -23.453)" fill="#bfdadd"/>
      <path id="Path_22923" data-name="Path 22923" d="M99.206,32.091V44.169L84.762,56.195a9.625,9.625,0,0,1-12.32,0L58,44.169V32.091a5.915,5.915,0,0,1,5.916-5.915H93.291a5.915,5.915,0,0,1,5.915,5.915Zm0,0" transform="translate(-51.964 -23.453)" fill="#e4f5f7"/>
      <path id="Path_22924" data-name="Path 22924" d="M345.268,372.859a.812.812,0,0,1-.521-.189l-13-10.826a.815.815,0,0,1,1.044-1.253l13,10.826a.815.815,0,0,1-.522,1.442Zm0,0" transform="translate(-296.956 -322.896)" fill="#fba028"/>
      <path id="Path_22925" data-name="Path 22925" d="M18.469,204.955,7.783,214.083a2.287,2.287,0,0,0,1.094,3.993c3.069.533,6.655,1.132,7.619,1.192H5.119A5.114,5.114,0,0,1,0,214.154V185.265H3.865v19.692a4.732,4.732,0,0,0,7.763,3.57l5.823-4.848a.816.816,0,0,1,1.164.125.838.838,0,0,1-.147,1.15Zm0,0" transform="translate(-0.004 -165.986)" fill="#fba028"/>
      <g id="Group_5156" data-name="Group 5156" transform="translate(13.863 12.302)">
        <path id="Path_22926" data-name="Path 22926" d="M157.95,210.861H134.03a.815.815,0,1,1,0-1.631h23.92a.815.815,0,0,1,0,1.631Zm0,0" transform="translate(-133.214 -199.758)" fill="#4b5051"/>
        <path id="Path_22927" data-name="Path 22927" d="M157.95,256.373H134.03a.815.815,0,1,1,0-1.631h23.92a.815.815,0,0,1,0,1.631Zm0,0" transform="translate(-133.214 -240.534)" fill="#4b5051"/>
        <path id="Path_22928" data-name="Path 22928" d="M157.95,119.846H134.03a.815.815,0,1,1,0-1.631h23.92a.815.815,0,1,1,0,1.631Zm0,0" transform="translate(-133.214 -118.215)" fill="#4b5051"/>
        <path id="Path_22929" data-name="Path 22929" d="M157.95,165.354H134.03a.815.815,0,1,1,0-1.631h23.92a.815.815,0,0,1,0,1.631Zm0,0" transform="translate(-133.214 -158.987)" fill="#4b5051"/>
      </g>
    </g>
  </g>
</svg>
