<svg id="Group_936" data-name="Group 936" xmlns="http://www.w3.org/2000/svg" width="28.282" height="28.282" viewBox="0 0 28.282 28.282">
  <path id="Path_3" data-name="Path 3" d="M141.627,219.836l-.984,3.675-3.6.076a14.165,14.165,0,0,1-.1-13.2h0l3.2.587,1.4,3.184a8.441,8.441,0,0,0,.079,5.682Z" transform="translate(-135.359 -202.745)" fill="#fbbb00"/>
  <path id="Path_4" data-name="Path 4" d="M171.425,216.391a14.136,14.136,0,0,1-5.041,13.669h0l-4.035-.206-.571-3.565a8.431,8.431,0,0,0,3.627-4.3h-7.562v-5.594h13.583Z" transform="translate(-143.39 -204.891)" fill="#518ef8"/>
  <path id="Path_5" data-name="Path 5" d="M159.288,233.167h0a14.145,14.145,0,0,1-21.309-4.326l4.582-3.751a8.411,8.411,0,0,0,12.12,4.306Z" transform="translate(-136.296 -207.999)" fill="#28b446"/>
  <path id="Path_6" data-name="Path 6" d="M159.405,201.756l-4.582,3.75a8.409,8.409,0,0,0-12.4,4.4l-4.607-3.771h0a14.144,14.144,0,0,1,21.586-4.382Z" transform="translate(-136.238 -198.5)" fill="#f14336"/>
</svg>
