<?xml version="1.0" encoding="utf-8"?>
<!-- Generator: Adobe Illustrator 22.1.0, SVG Export Plug-In . SVG Version: 6.00 Build 0)  -->
<svg version="1.1" id="menu" xmlns="http://www.w3.org/2000/svg" xmlns:xlink="http://www.w3.org/1999/xlink" x="0px" y="0px"
	 viewBox="0 0 24 21" style="enable-background:new 0 0 24 21;" xml:space="preserve">
<path id="Rectangle" d="M1.5,9h11c0.8,0,1.5,0.7,1.5,1.5l0,0c0,0.8-0.7,1.5-1.5,1.5h-11C0.7,12,0,11.3,0,10.5l0,0C0,9.7,0.7,9,1.5,9
	z"/>
<path id="Rectangle_Copy" d="M1.5,18h17c0.8,0,1.5,0.7,1.5,1.5l0,0c0,0.8-0.7,1.5-1.5,1.5h-17C0.7,21,0,20.3,0,19.5l0,0
	C0,18.7,0.7,18,1.5,18z"/>
<path id="Rectangle_Copy_2" d="M1.5,0h21C23.3,0,24,0.7,24,1.5l0,0C24,2.3,23.3,3,22.5,3h-21C0.7,3,0,2.3,0,1.5l0,0
	C0,0.7,0.7,0,1.5,0z"/>
</svg>
