<svg xmlns="http://www.w3.org/2000/svg" width="115" height="60" viewBox="0 0 115 60">
  <g id="Group_5160" data-name="Group 5160" transform="translate(-141.738 -30)">
    <path id="Path_1" data-name="Path 1" d="M247.8,232.314h1.749a.472.472,0,0,1,.369.766l-.755.945-1,1.249a.471.471,0,0,1-.738,0l-1-1.249-.754-.945a.472.472,0,0,1,.369-.766Z" transform="translate(-48.38 -180.392)" fill="#090"/>
    <path id="Path_2" data-name="Path 2" d="M222.57,219.075a1.526,1.526,0,0,1-.117.508,1.546,1.546,0,1,1-1.955-2.05,4.64,4.64,0,1,0,2.072,1.542Z" transform="translate(-31.266 -172.207)" fill="#090"/>
    <path id="Path_3" data-name="Path 3" d="M275.877,219.719a1.565,1.565,0,0,1-.116.508,1.547,1.547,0,1,1-1.956-2.051,4.641,4.641,0,1,0,2.072,1.543Z" transform="translate(-60.449 -172.558)" fill="#090"/>
    <path id="Path_4" data-name="Path 4" d="M242.015,184.365c-1.671-.78-2.06,1.558-5.568,3.9-2.5,1.666-7.062,1.58-9.419,1.373-2.357.207-6.92.293-9.419-1.373-3.508-2.339-3.9-4.677-5.568-3.9-.825.384-2.8,3.8-4.661,8.316a32.248,32.248,0,0,1,7.811,1.108c5.77-1.165,9.782,2.532,11.385,4.39a2.28,2.28,0,0,0,.9,0c1.6-1.857,5.615-5.554,11.385-4.389a32.248,32.248,0,0,1,7.81-1.108C244.817,188.16,242.84,184.749,242.015,184.365Z" transform="translate(-27.79 -154.212)" fill="#090"/>
    <path id="Path_5" data-name="Path 5" d="M212.818,213.834l1.189.072c.9.041,1.053.725,1.755,2.014s1.95,7.211,9.868,7.09,15.756-9.025,16.887-12.206-1.092-5.52-9.829-5.8-17.823,5-17.823,5a4.163,4.163,0,0,1-4.1,0s-9.088-5.277-17.824-5-10.96,2.619-9.828,5.8,8.97,12.086,16.887,12.206,9.165-5.8,9.867-7.09.857-1.974,1.754-2.014Zm11.837,7.565c-5.421-.363-8.892-6.244-6.006-9.547s9.244-3.948,9.244-3.948c1.716-.081,8.737-.806,8.737,3.5S230.075,221.762,224.654,221.4Zm-35.648-9.991c0-4.31,7.02-3.585,8.736-3.5,0,0,6.359.644,9.244,3.948s-.585,9.184-6.006,9.547S189.006,215.719,189.006,211.408Z" transform="translate(-13.579 -165.56)" fill="#090"/>
    <g id="Group_973" data-name="Group 973" transform="translate(141.738 60.471)" style="isolation: isolate">
      <path id="Path_6" data-name="Path 6" d="M129.539,251.776c.545-.042,1.005-.042,1.341-.042h.669a18.729,18.729,0,0,1,3.98.293,6.726,6.726,0,0,1,5.11,5.237,10.385,10.385,0,0,1,.084,1.088c0,1.8-1.047,3.392-3.56,4.566-2.262,1.005-5.362,1.968-7.2,3.812a8.22,8.22,0,0,0-1.633,2.3,6.281,6.281,0,0,0-.754,3.015c0,1.005.335,2.137,1.382,2.137.963,0,2.3-.838,4.147-3.058.67-.8,1.341-2.6,2.681-3.6a3.358,3.358,0,0,1,2.262-.838,4.038,4.038,0,0,1,3.016,1.341,7.322,7.322,0,0,1,1.592,4.565,10.031,10.031,0,0,1-.629,3.476c-1.591,4.4-6.618,5.027-11.979,5.027-.377,0-2.555-.042-6.911-.042V251.776Zm-.8,28.608c2.89,0,7.12-.251,9.214-2.011a6.485,6.485,0,0,0,2.388-5.277,13.431,13.431,0,0,0-.21-1.76,5.079,5.079,0,0,0-1.089-2.261,2.054,2.054,0,0,0-3.728.125c-1.214,1.885-3.811,5.612-6.324,5.612-1.215,0-1.927-.963-2.053-2.6v-.378c0-4.021,3.6-8.167,9.089-10.848,1.508-.963,2.722-2.094,2.722-3.476v-.21c-.293-2.722-2.345-4.858-6.492-4.858h-1.382c-.838,0-1.718.042-3.016.042H125.35v27.854C126.984,280.343,128.45,280.384,128.744,280.384Z" transform="translate(-123.131 -251.734)"/>
      <path id="Path_7" data-name="Path 7" d="M171.461,281.153V251.917h1.927v29.236Z" transform="translate(-149.563 -251.833)"/>
      <path id="Path_8" data-name="Path 8" d="M183.242,256.564a1.2,1.2,0,0,1,.879-.376,1.254,1.254,0,0,1,1.257,1.34,1.29,1.29,0,0,1-1.257,1.382,1.206,1.206,0,0,1-.879-.377,1.7,1.7,0,0,1-.336-1.005A1.679,1.679,0,0,1,183.242,256.564Zm-.084,6.66h1.927v20.231h-1.927Z" transform="translate(-155.825 -254.135)"/>
      <path id="Path_9" data-name="Path 9" d="M195.534,272.158h1.926v3.392a8.5,8.5,0,0,1,6.828-3.643c3.56,0,6.827,2.554,6.827,7.957v12.063h-1.927v-12.4c0-4.146-2.513-6.785-5.4-6.785-2.681,0-5.445,2.764-6.326,5.654v13.529h-1.926Z" transform="translate(-162.806 -262.607)"/>
      <path id="Path_10" data-name="Path 10" d="M238.482,251.826V281.1H236.6V251.826Zm1.843,21.4a5.667,5.667,0,0,1,.084-.669c.209-1.215,1.13-2.765,2.848-4.733,1.3-1.466,2.807-3.142,4.105-4.523l2.262-2.388.8,1.005c-1.508,1.424-2.095,1.843-2.806,2.555l-.838.838c-.67.67-1.591,1.634-3.1,3.267-1.968,2.177-2.723,4.021-2.723,4.733,0,.336,0,.964,1.005,1.005a9.7,9.7,0,0,1,7.455,4.272l1.257,1.76a5.928,5.928,0,0,0,.5.754h-2.094a5.5,5.5,0,0,0-.419-.629c-.294-.377-.586-.921-1.047-1.55a9.984,9.984,0,0,0-5.99-4.146A1.466,1.466,0,0,1,240.325,273.229Z" transform="translate(-185.297 -251.784)"/>
      <path id="Path_11" data-name="Path 11" d="M269.686,279.061c1.09-4.65,5.278-7.791,9.173-7.791a6.521,6.521,0,0,1,6.2,4.23,2.61,2.61,0,0,1,.376,1.507,2.839,2.839,0,0,1-2.178,2.849c-3.77.8-9.8-.336-11.016,5.319,1.466,3.895,3.979,5.57,6.492,5.57a6.235,6.235,0,0,0,5.781-4.608l.712.5a2.584,2.584,0,0,0,.5.335,8.393,8.393,0,0,1-7.456,4.565c-3.727,0-7.414-2.6-8.544-7.329a14.476,14.476,0,0,1-.335-2.764A8.9,8.9,0,0,1,269.686,279.061Zm1.634,1.34a12.038,12.038,0,0,0,.419,3.141,4.579,4.579,0,0,1,.168.8c1.34-4.691,6.45-4.44,9.885-5.11a2.481,2.481,0,0,0,1.843-2.429,2.507,2.507,0,0,0-.293-1.3,5.72,5.72,0,0,0-5.194-3.225,6.641,6.641,0,0,0-6.074,4.356,7.409,7.409,0,0,0-.67,2.388C271.362,279.731,271.32,280.192,271.32,280.4Z" transform="translate(-203.288 -262.264)"/>
      <path id="Path_12" data-name="Path 12" d="M310.727,291.731V279.374c.21-4.649,3.435-7.832,8-7.832a7.749,7.749,0,0,1,6.325,2.932l-1.466,1.341a7.549,7.549,0,0,0-5.654-3.392h-.21a6.919,6.919,0,0,0-.922.084c-2.3.335-4.23,2.388-4.23,6.451v12.775Z" transform="translate(-226.218 -262.411)"/>
      <path id="Path_13" data-name="Path 13" d="M345,275.032a6.285,6.285,0,0,1,6.157-3.853,12.138,12.138,0,0,1,6.66,2.262l-1.005,1.382-.209-.209a7.9,7.9,0,0,0-5.026-2.471h-.5a5.327,5.327,0,0,0-3.98,1.424,3.309,3.309,0,0,0-1.005,2.387,3.689,3.689,0,0,0,3.1,3.477l.544.126a9.225,9.225,0,0,1,2.387-.964v.544a6.267,6.267,0,0,0-1.592.586c3.56.67,7.832.88,8.838,4.692a4.411,4.411,0,0,1,.167,1.3,5.5,5.5,0,0,1-1.424,3.686,7.243,7.243,0,0,1-5.529,2.345,7.449,7.449,0,0,1-6.408-3.225,3.733,3.733,0,0,1-.712-2.429,7.639,7.639,0,0,1,2.429-5.151,4.83,4.83,0,0,1-2.681-2.262,5.972,5.972,0,0,1-.5-2.136A3.584,3.584,0,0,1,345,275.032Zm1.173,11.435a3.42,3.42,0,0,0,.67,1.717,7.243,7.243,0,0,0,5.613,2.6,6.144,6.144,0,0,0,2.346-.419,4.9,4.9,0,0,0,3.309-4.23v-.209a2.27,2.27,0,0,0-.042-.461,3.028,3.028,0,0,0-1.089-1.718,6.246,6.246,0,0,0-3.477-1.466,21.626,21.626,0,0,1-5.026-1.089,7.188,7.188,0,0,0-2.345,4.65A2.415,2.415,0,0,0,346.172,286.467Z" transform="translate(-244.533 -262.215)"/>
    </g>
  </g>
</svg>
