<svg xmlns="http://www.w3.org/2000/svg" width="96" height="96" viewBox="0 0 96 96">
  <g id="phone-icon" transform="translate(-228 -321)">
    <circle id="Ellipse_799" data-name="Ellipse 799" cx="48" cy="48" r="48" transform="translate(228 321)" fill="#fff"/>
    <circle id="Ellipse_800" data-name="Ellipse 800" cx="39" cy="39" r="39" transform="translate(237 330)" fill="#d0f0d0"/>
    <g id="telephone" transform="translate(248 329.215)">
      <g id="Group_4622" data-name="Group 4622" transform="translate(21.983 28.765)">
        <path id="Path_16967" data-name="Path 16967" d="M202.66,196.181a1.671,1.671,0,0,1-1.671-1.671v-3.948a1.671,1.671,0,1,1,3.342,0v3.948A1.671,1.671,0,0,1,202.66,196.181Z" transform="translate(-200.989 -188.89)" fill="#feeb70"/>
        <path id="Path_16968" data-name="Path 16968" d="M282.137,196.181a1.671,1.671,0,0,1-1.671-1.671v-3.948a1.671,1.671,0,1,1,3.342,0v3.948A1.671,1.671,0,0,1,282.137,196.181Z" transform="translate(-271.773 -188.89)" fill="#feeb70"/>
      </g>
      <g id="Group_4623" data-name="Group 4623" transform="translate(0 9.101)">
        <path id="Path_16969" data-name="Path 16969" d="M51.12,31.569h-.007l-6.995-.007a4.673,4.673,0,0,1-3.6-1.686,4.6,4.6,0,0,1-.991-3.781c.007-.041.017-.081.027-.122l.374-1.423a29.3,29.3,0,0,0-11.925-2.878,28.539,28.539,0,0,0-11.93,2.821l.368,1.431q.015.058.026.118a4.6,4.6,0,0,1-1,3.779,4.673,4.673,0,0,1-3.6,1.676h-.007l-6.995-.007a4.628,4.628,0,0,1-4.436-3.2,9.607,9.607,0,0,1,1.726-8.831c2.157-2.95,5.928-5.607,10.621-7.482a41.458,41.458,0,0,1,30.477.046c4.684,1.889,8.447,4.558,10.6,7.514a9.615,9.615,0,0,1,1.7,8.843A4.627,4.627,0,0,1,51.12,31.569Z" transform="translate(0 -9.101)" fill="#0053ad"/>
        <path id="Path_16970" data-name="Path 16970" d="M96.073,255.388H55.1a1.671,1.671,0,0,1-1.671-1.671v-6.875a22.893,22.893,0,0,1,6.342-15.855l5.216-5.477a1.671,1.671,0,0,1,1.21-.519H84.975a1.671,1.671,0,0,1,1.21.519l5.216,5.477a22.893,22.893,0,0,1,6.342,15.855v6.874A1.671,1.671,0,0,1,96.073,255.388Z" transform="translate(-47.587 -201.379)" fill="#0053ad"/>
      </g>
      <path id="Path_16971" data-name="Path 16971" d="M184.792,304.627a8.745,8.745,0,1,1,8.745-8.746A8.755,8.755,0,0,1,184.792,304.627Z" transform="translate(-156.792 -247.625)" fill="#feeb70"/>
      <g id="Group_4624" data-name="Group 4624" transform="translate(28 9.101)">
        <path id="Path_16972" data-name="Path 16972" d="M271.256,12.027A41.846,41.846,0,0,0,256.024,9.1H256V21.673H256a29.3,29.3,0,0,1,11.925,2.878l-.374,1.423c-.011.04-.02.081-.027.122a4.6,4.6,0,0,0,.991,3.781,4.673,4.673,0,0,0,3.6,1.686l6.995.007h.007a4.628,4.628,0,0,0,4.437-3.185,9.616,9.616,0,0,0-1.7-8.843C279.7,16.585,275.94,13.916,271.256,12.027Z" transform="translate(-255.997 -9.102)" fill="#003773"/>
        <path id="Path_16973" data-name="Path 16973" d="M266.6,225.511a1.671,1.671,0,0,0-1.21-.519H256v30.4h20.486a1.671,1.671,0,0,0,1.671-1.671v-6.875a22.893,22.893,0,0,0-6.342-15.855Z" transform="translate(-255.997 -201.379)" fill="#003773"/>
      </g>
      <path id="Path_16974" data-name="Path 16974" d="M256,287.137h0v17.491h0a8.745,8.745,0,1,0,0-17.491Z" transform="translate(-227.997 -247.626)" fill="#fcb629"/>
    </g>
  </g>
</svg>
