<svg xmlns="http://www.w3.org/2000/svg" width="22.03" height="27.402" viewBox="0 0 22.03 27.402">
  <path id="Forma_1" data-name="Forma 1" d="M5.079,27.4a3.125,3.125,0,0,1-3.112-3.131V9.482A3.133,3.133,0,0,1,0,6.574V6.414A3.125,3.125,0,0,1,3.112,3.283H7.353a3.684,3.684,0,0,1,7.324,0h4.24A3.125,3.125,0,0,1,22.03,6.414v.161a3.133,3.133,0,0,1-1.967,2.908V24.271A3.125,3.125,0,0,1,16.951,27.4ZM3.443,24.271a1.643,1.643,0,0,0,1.636,1.646H16.951a1.643,1.643,0,0,0,1.636-1.646V9.7H3.443ZM1.476,6.414v.161A1.643,1.643,0,0,0,3.112,8.22H18.917a1.643,1.643,0,0,0,1.636-1.646V6.414a1.643,1.643,0,0,0-1.636-1.646H3.112A1.643,1.643,0,0,0,1.476,6.414ZM8.844,3.283h4.341a2.209,2.209,0,0,0-4.341,0Zm5.389,19.993V14.918a.738.738,0,1,1,1.476,0v8.358a.738.738,0,1,1-1.476,0Zm-3.957,0V14.918a.738.738,0,1,1,1.476,0v8.358a.738.738,0,1,1-1.476,0Zm-3.957,0V14.918a.738.738,0,1,1,1.476,0v8.358a.738.738,0,1,1-1.476,0Z" fill="#36393c"/>
</svg>
