<svg xmlns="http://www.w3.org/2000/svg" width="27.96" height="25.643" viewBox="0 0 27.96 25.643">
  <path id="favorites-icon" d="M18.746,22.543a7.63,7.63,0,0,0-3.5.841,7.774,7.774,0,0,0-2.012,1.483,7.774,7.774,0,0,0-2.012-1.483,7.631,7.631,0,0,0-3.5-.841A7.722,7.722,0,0,0,0,30.257c0,3.013,1.591,6.212,4.729,9.51a45.725,45.725,0,0,0,8.057,6.489l.444.287.444-.287a45.723,45.723,0,0,0,8.057-6.489c3.138-3.3,4.729-6.5,4.729-9.51A7.722,7.722,0,0,0,18.746,22.543Z" transform="translate(0.75 -21.793)" fill="none" stroke="#fff" stroke-width="1.5"/>
</svg>
