<svg xmlns="http://www.w3.org/2000/svg" width="24" height="24" viewBox="0 0 24 24">
  <g id="logout-icon" transform="translate(0.989 0.994)">
    <g id="Group_1112" data-name="Group 1112" transform="translate(-0.989 -0.994)">
      <g id="Group_1111" data-name="Group 1111" transform="translate(0 0)">
        <path id="Path_4612" data-name="Path 4612" d="M310.146,154.256c.012-.015.023-.03.034-.045s.028-.036.04-.055.023-.037.034-.056.021-.034.03-.051.019-.039.028-.058.018-.036.026-.055.014-.038.021-.057.015-.04.021-.061.01-.039.015-.058.011-.042.015-.063.007-.045.01-.068.006-.037.008-.056a1.279,1.279,0,0,0,0-.252c0-.019-.005-.037-.008-.056s-.006-.045-.01-.068-.01-.042-.015-.063-.009-.039-.015-.058-.014-.04-.021-.061-.013-.038-.021-.057-.017-.037-.026-.055-.018-.039-.028-.058-.02-.034-.03-.051-.022-.037-.034-.056-.027-.037-.04-.055-.022-.031-.034-.046c-.026-.032-.054-.063-.084-.093h0l-3.825-3.825a1.275,1.275,0,1,0-1.8,1.8l1.648,1.648h-7.122a1.275,1.275,0,1,0,0,2.55h7.121l-1.648,1.648a1.275,1.275,0,1,0,1.8,1.8l3.825-3.825h0C310.092,154.319,310.12,154.288,310.146,154.256Z" transform="translate(-286.435 -142.31)" fill="#fff"/>
        <path id="Path_4613" data-name="Path 4613" d="M14.454,13.006a.957.957,0,0,0-.908,1v5H9.912v-16h0a.993.993,0,0,0-.647-.958L6.109,1.006h7.436v5a.913.913,0,1,0,1.817,0v-6a.957.957,0,0,0-.908-1H-.08c-.027,0-.053,0-.08,0a.9.9,0,0,0-.787.7c-.006.022-.012.045-.017.068v.008q-.007.036-.012.073v.01c0,.022-.005.045-.007.068s0,.074,0,.111V20.006a.981.981,0,0,0,.73.981l9.083,2a.937.937,0,0,0,1.086-.981v-1h4.542a.957.957,0,0,0,.908-1v-6A.957.957,0,0,0,14.454,13.006ZM8.1,20.786l-7.267-1.6V1.35L8.1,3.75V20.786Z" transform="translate(0.989 0.994)" fill="#fff"/>
      </g>
    </g>
  </g>
</svg>
