<svg xmlns="http://www.w3.org/2000/svg" width="21.5" height="24.5" viewBox="0 0 21.5 24.5">
  <g id="my-ads-icon" transform="translate(-26.893 -781.75)">
    <path id="Path_42" data-name="Path 42" d="M53.967,6.624l-.018-.031a1.132,1.132,0,0,0-.085-.146L50.509.674A1.362,1.362,0,0,0,49.335,0H37.79a1.361,1.361,0,0,0-1.175.676L33.2,6.563a.7.7,0,0,0-.068.165,1.184,1.184,0,0,0-.074.414v15.2A1.66,1.66,0,0,0,34.724,24H52.4a1.66,1.66,0,0,0,1.662-1.654V7.086c0-.02,0-.041,0-.061A.7.7,0,0,0,53.967,6.624ZM44.293,1.407H49.3l2.639,4.541H44.293Zm-6.47,0h5.057V5.948H35.192ZM52.648,22.346a.248.248,0,0,1-.248.247H34.724a.248.248,0,0,1-.248-.247V7.354H52.648Z" transform="translate(-5.919 782)" fill="#fff" stroke="#fff" stroke-width="0.5"/>
    <g id="Group_89" data-name="Group 89" transform="translate(33.946 794.112)">
      <path id="Path_43" data-name="Path 43" d="M191.726,265.859a.776.776,0,0,0-1.1,0l-3.462,3.462-1.331-1.331a.775.775,0,0,0-1.1,1.1l1.88,1.88a.775.775,0,0,0,1.1,0l4.011-4.011A.775.775,0,0,0,191.726,265.859Z" transform="translate(-184.512 -265.632)" fill="#fff" stroke="#fff" stroke-width="0.5"/>
    </g>
  </g>
</svg>
