<svg xmlns="http://www.w3.org/2000/svg" width="26" height="24" viewBox="0 0 26 24">
  <g id="myplan-icon" transform="translate(-0.001 -0.004)">
    <path id="Path_22943" data-name="Path 22943" d="M24.422,247.222a.764.764,0,0,0-.846.674,10.441,10.441,0,0,1-20.47,1.56l.911.507a.757.757,0,0,0,1.034-.3.776.776,0,0,0-.3-1.047l-2.336-1.3a.777.777,0,0,0-1.034.3L.1,249.979a.776.776,0,0,0,.3,1.047.83.83,0,0,0,1.034-.3l.3-.548a11.96,11.96,0,0,0,23.361-2.1.769.769,0,0,0-.666-.857Zm0,0" transform="translate(0 -234.747)" fill="#fff"/>
    <path id="Path_22944" data-name="Path 22944" d="M52.577,6.588a.758.758,0,0,0-1,.4l-.24.563a12.175,12.175,0,0,0-3.5-4.8,11.873,11.873,0,0,0-15.189,0,12.183,12.183,0,0,0-4.128,6.863.771.771,0,0,0,.588.914.761.761,0,0,0,.9-.6,10.632,10.632,0,0,1,3.6-5.989,10.367,10.367,0,0,1,13.259,0,10.636,10.636,0,0,1,3.167,4.475L49.074,8a.758.758,0,0,0-1,.4.775.775,0,0,0,.4,1.013l2.418,1.054a.8.8,0,0,0,1.03-.39L52.975,7.6a.775.775,0,0,0-.4-1.013Zm0,0" transform="translate(-27.037 0)" fill="#fff"/>
    <path id="Path_22945" data-name="Path 22945" d="M154.31,86.736a.765.765,0,0,0-.771.759v.3a2.92,2.92,0,0,0,2.94,2.893h.321v1.015a.771.771,0,0,0,1.542,0V90.692h.927v1.015a.771.771,0,0,0,1.542,0V90.692h.321a2.92,2.92,0,0,0,2.94-2.893v-.44a2.558,2.558,0,0,0-1.889-2.449l-1.372-.377V80.807h.32a1.388,1.388,0,0,1,1.4,1.374V82.3a.771.771,0,0,0,1.542,0v-.122a2.92,2.92,0,0,0-2.941-2.892h-.32V77.709a.771.771,0,0,0-1.542,0v1.579h-.927V77.709a.771.771,0,0,0-1.542,0v1.579h-.32a2.92,2.92,0,0,0-2.941,2.892,2.558,2.558,0,0,0,1.89,2.449l1.372.377v4.167h-.321a1.388,1.388,0,0,1-1.4-1.374v-.3A.765.765,0,0,0,154.31,86.736Zm6.5-.627.957.263a1.031,1.031,0,0,1,.762.987v.44a1.388,1.388,0,0,1-1.4,1.374h-.321Zm-2.469-5.3h.927v3.3l-.927-.255Zm0,4.624.927.255v3.488h-.927Zm-2.5-2.263a1.031,1.031,0,0,1-.762-.987,1.388,1.388,0,0,1,1.4-1.374h.321v2.624Zm0,0" transform="translate(-145.805 -72.99)" fill="#fff"/>
  </g>
</svg>
