<svg xmlns="http://www.w3.org/2000/svg" width="24.548" height="24.5" viewBox="0 0 24.548 24.5">
  <path id="review-icon" d="M3.974,15.393a.959.959,0,0,0,1.33-.264,8.34,8.34,0,0,1,13.846-.017.959.959,0,1,0,1.591-1.071A10.234,10.234,0,0,0,15.7,10.115a5.418,5.418,0,1,0-6.87-.021A10.231,10.231,0,0,0,3.71,14.063.959.959,0,0,0,3.974,15.393Zm8.3-12.975a3.5,3.5,0,1,1-3.5,3.5A3.5,3.5,0,0,1,12.274,2.418ZM16.1,17.479l-1.43,1.031a.6.6,0,0,0-.22.674l.576,1.669a.605.605,0,0,1,.031.216.632.632,0,0,1-.994.458l-1.429-1.032a.61.61,0,0,0-.713,0l-1.429,1.032a.632.632,0,0,1-.994-.458.615.615,0,0,1,.031-.216l.575-1.669a.6.6,0,0,0-.22-.674L8.45,17.479a.647.647,0,0,1,.357-1.157h1.767a.552.552,0,0,0,.577-.349l.546-1.679a.608.608,0,0,1,1.154,0l.546,1.679a.552.552,0,0,0,.577.349h1.767A.647.647,0,0,1,16.1,17.479Zm8.2,3.356-1.43,1.031a.6.6,0,0,0-.22.674l.576,1.669a.605.605,0,0,1,.031.216.632.632,0,0,1-.994.458l-1.429-1.032a.61.61,0,0,0-.713,0l-1.429,1.032a.632.632,0,0,1-.994-.458.615.615,0,0,1,.031-.216L18.3,22.54a.6.6,0,0,0-.22-.674l-1.43-1.031a.647.647,0,0,1,.357-1.157h1.767a.552.552,0,0,0,.577-.349l.546-1.679a.608.608,0,0,1,1.154,0l.546,1.679a.552.552,0,0,0,.577.349H23.94A.647.647,0,0,1,24.3,20.835Zm-16.4,0L6.47,21.866a.6.6,0,0,0-.22.674l.576,1.669a.605.605,0,0,1,.031.216.632.632,0,0,1-.994.458l-1.43-1.032a.61.61,0,0,0-.713,0L2.289,24.882a.632.632,0,0,1-.994-.458.615.615,0,0,1,.031-.216L1.9,22.54a.6.6,0,0,0-.22-.674L.251,20.835a.647.647,0,0,1,.357-1.157H2.375a.552.552,0,0,0,.577-.349L3.5,17.649a.608.608,0,0,1,1.154,0L5.2,19.329a.552.552,0,0,0,.577.349H7.543A.647.647,0,0,1,7.9,20.835Z" transform="translate(0 -0.5)" fill="#fff"/>
</svg>
