<svg xmlns="http://www.w3.org/2000/svg" width="24" height="24" viewBox="0 0 24 24">
  <g id="setting-icon" transform="translate(0 -1)">
    <path id="Path_4608" data-name="Path 4608" d="M21.891,1H2.109A2.116,2.116,0,0,0,0,3.118V20.059a2.116,2.116,0,0,0,2.109,2.118c4.2,0,3.82,0,3.873,0l1.543,1.549a.7.7,0,0,0,.994,0l.752-.755a6.263,6.263,0,0,0,.619.258v1.067a.7.7,0,0,0,.7.706h2.813a.7.7,0,0,0,.7-.706V23.227a6.262,6.262,0,0,0,.619-.258l.752.755a.7.7,0,0,0,.994,0l1.542-1.548h3.875A2.116,2.116,0,0,0,24,20.059V3.118A2.116,2.116,0,0,0,21.891,1ZM2.109,2.412H21.891a.705.705,0,0,1,.7.706V6.647H1.406V3.118A.705.705,0,0,1,2.109,2.412ZM15.977,22.227l-.623-.626a.7.7,0,0,0-.855-.108,4.853,4.853,0,0,1-1.268.528.705.705,0,0,0-.528.684v.884H11.3V22.7a.705.705,0,0,0-.528-.684A4.851,4.851,0,0,1,9.5,21.493a.7.7,0,0,0-.855.108l-.623.626-.995-1,.623-.626a.708.708,0,0,0,.108-.859,4.893,4.893,0,0,1-.526-1.273.7.7,0,0,0-.681-.53h-.88V16.529h.88A.7.7,0,0,0,7.233,16a4.891,4.891,0,0,1,.526-1.273.708.708,0,0,0-.108-.859l-.623-.626.995-1,.623.626a.7.7,0,0,0,.855.108,4.853,4.853,0,0,1,1.268-.528.705.705,0,0,0,.528-.684v-.884H12.7v.884a.705.705,0,0,0,.528.684,4.851,4.851,0,0,1,1.268.528.7.7,0,0,0,.855-.108l.623-.626.995,1-.623.626a.708.708,0,0,0-.108.859A4.893,4.893,0,0,1,16.767,16a.7.7,0,0,0,.681.53h.88v1.412h-.88a.7.7,0,0,0-.681.53,4.891,4.891,0,0,1-.526,1.273.708.708,0,0,0,.108.859l.623.626Zm5.913-1.462H18.5c-.036-.041.041.037-.784-.791a6.315,6.315,0,0,0,.257-.621h1.063a.7.7,0,0,0,.7-.706V15.824a.7.7,0,0,0-.7-.706H17.968a6.314,6.314,0,0,0-.257-.621l.752-.755a.708.708,0,0,0,0-1l-1.989-2a.7.7,0,0,0-.994,0l-.752.755a6.263,6.263,0,0,0-.619-.258V10.176a.7.7,0,0,0-.7-.706H10.594a.7.7,0,0,0-.7.706v1.067a6.264,6.264,0,0,0-.619.258l-.752-.755a.7.7,0,0,0-.994,0l-1.989,2a.708.708,0,0,0,0,1l.752.755a6.315,6.315,0,0,0-.257.621H4.969a.7.7,0,0,0-.7.706v2.824a.7.7,0,0,0,.7.706H6.032a6.315,6.315,0,0,0,.257.621c-.825.828-.749.75-.784.791h-3.4a.705.705,0,0,1-.7-.706v-12H22.594v12A.705.705,0,0,1,21.891,20.765Z" fill="#fff"/>
    <path id="Path_4609" data-name="Path 4609" d="M184.529,271a3.529,3.529,0,1,0,3.529,3.529A3.533,3.533,0,0,0,184.529,271Zm0,5.647a2.118,2.118,0,1,1,2.118-2.118A2.12,2.12,0,0,1,184.529,276.647Z" transform="translate(-172.529 -257.294)" fill="#fff"/>
    <circle id="Ellipse_621" data-name="Ellipse 621" cx="0.576" cy="0.576" r="0.576" transform="translate(2.832 3.785)" fill="#fff"/>
    <circle id="Ellipse_622" data-name="Ellipse 622" cx="0.576" cy="0.576" r="0.576" transform="translate(5.688 3.785)" fill="#fff"/>
    <circle id="Ellipse_623" data-name="Ellipse 623" cx="0.576" cy="0.576" r="0.576" transform="translate(8.556 3.785)" fill="#fff"/>
    <path id="Path_4610" data-name="Path 4610" d="M331.706,62.412h4.235a.706.706,0,0,0,0-1.412h-4.235a.706.706,0,1,0,0,1.412Z" transform="translate(-315.518 -57.176)" fill="#fff"/>
  </g>
</svg>
